Blue.Velvet.1986.720p.HD-TV-Rip.x264.aac.mp4-anoXmous

Format                           : MPEG-4
Format profile                   : Base Media
Codec ID                         : isom
File size                        : 698 MiB
Duration                         : 2h 0mn
Overall bit rate mode            : Variable
Overall bit rate                 : 809 Kbps


Video
ID                               : 1
Format                           : AVC
Format/Info                      : Advanced Video Codec
Format profile                   : High@L4.1
Format settings, CABAC           : Yes
Format settings, ReFrames        : 4 frames
Codec ID                         : avc1
Codec ID/Info                    : Advanced Video Coding
Duration                         : 2h 0mn
Bit rate                         : 739 Kbps
Maximum bit rate                 : 4 009 Kbps
Width                            : 1 280 pixels
Height                           : 544 pixels
Display aspect ratio             : 2.35:1
Frame rate mode                  : Constant
Frame rate                       : 23.976 fps
Color space                      : YUV
Chroma subsampling               : 4:2:0
Bit depth                        : 8 bits
Scan type                        : Progressive
Bits/(Pixel*Frame)               : 0.044
Stream size                      : 636 MiB (91%)
Writing library                  : x264 core 119 r2106 07efeb4


Audio
ID                               : 2
Format                           : AAC
Format/Info                      : Advanced Audio Codec
Format profile                   : LC
Codec ID                         : 40
Duration                         : 2h 0mn
Bit rate mode                    : Variable
Bit rate                         : 68.2 Kbps
Maximum bit rate                 : 90.0 Kbps
Channel(s)                       : 2 channels
Channel positions                : Front: L R
Sampling rate                    : 48.0 KHz 
Compression mode                 : Lossy
Stream size                      : 58.8 MiB (8%)
Language                         : English

                                SUB:
								
Blue.Velvet.1986.720p.HD-TV-Rip.x264.aac.mp4-anoXmous_eng.srt
Blue.Velvet.1986.720p.HD-TV-Rip.x264.aac.mp4-anoXmous_swe.srt
 
http://www.imdb.com/title/tt0090756/

+++++++This 1 should work very fine with PSP and XBOX :)+++++++++
